<svg xmlns="http://www.w3.org/2000/svg" width="355.615" height="75.057" viewBox="0 0 355.615 75.057"><g transform="translate(23547.92 4598)"><g transform="translate(-23547.92 -4598)"><path d="M150.572,26.994a.3.3,0,0,0-.313-.313h-3.5a.311.311,0,0,0-.313.313v.958a.323.323,0,0,0,.313.314h2.064v4.295a8.431,8.431,0,0,1-1.585.165c-2.157,0-3.8-1.161-3.8-4.571,0-3.613,1.825-4.611,4.11-4.611a14.494,14.494,0,0,1,2.509.3.271.271,0,0,0,.313-.258v-1.01a.454.454,0,0,0-.313-.387,13.521,13.521,0,0,0-2.544-.258c-3.373,0-5.9,1.806-5.9,6.23,0,4.737,2.543,6.193,5.622,6.193a14.966,14.966,0,0,0,3.317-.407h.019Z" transform="translate(-46.768 -7.059)" fill="#fff"/><path d="M159.937,23.838h2.157c1.326,0,1.843.7,1.843,1.954,0,1.437-.756,1.991-2.12,2.175l-1.88.258Zm-.313,10.4a.311.311,0,0,0,.313-.313V29.847l2.267-.332,1.806,4.442a.444.444,0,0,0,.424.277h1.271a.235.235,0,0,0,.221-.35l-2.064-4.83a3.292,3.292,0,0,0,1.9-3.3c0-1.935-.737-3.5-3.649-3.5H158.48a.323.323,0,0,0-.313.313V33.92a.323.323,0,0,0,.313.313Z" transform="translate(-52.096 -7.164)" fill="#fff"/><path d="M175.264,23.838h1.106l1.253,5.77h-3.612Zm-2.562,10.4a.394.394,0,0,0,.387-.313l.59-2.728h4.295l.61,2.728a.394.394,0,0,0,.387.313h1.2a.239.239,0,0,0,.239-.313l-2.582-11.355a.428.428,0,0,0-.387-.313h-3.226a.4.4,0,0,0-.388.313L171.317,33.92a.256.256,0,0,0,.24.313Z" transform="translate(-56.328 -7.164)" fill="#fff"/><path d="M189.1,23.838h2.322c2.286,0,3.39,1.419,3.39,4.407,0,3.078-1.253,4.407-3.39,4.407H189.1Zm2.47,10.4c3.187,0,5.014-1.991,5.014-5.991,0-4.055-1.788-5.99-5.014-5.99h-3.924a.323.323,0,0,0-.314.313V33.92a.323.323,0,0,0,.314.313Z" transform="translate(-61.487 -7.164)" fill="#fff"/><path d="M153.831,79.667a.542.542,0,0,0,.529-.529V77.552a.542.542,0,0,0-.529-.529h-8.3l8.3-14.714a1.826,1.826,0,0,0,.28-.964V59.979a.542.542,0,0,0-.529-.529H142.914a.525.525,0,0,0-.529.529V61.6a.524.524,0,0,0,.529.529h7.962l-8.553,14.988a2.245,2.245,0,0,0-.249.995v1.027a.542.542,0,0,0,.529.529Z" transform="translate(-46.915 -19.14)" fill="#fff"/><path d="M169.55,62.128h1.867l2.114,9.735h-6.093Zm-4.323,17.539a.665.665,0,0,0,.653-.529l1-4.6h7.246l1.027,4.6a.665.665,0,0,0,.653.529h2.022a.407.407,0,0,0,.407-.529l-4.357-19.159a.721.721,0,0,0-.653-.529h-5.443a.666.666,0,0,0-.654.529l-4.228,19.159a.432.432,0,0,0,.407.529Z" transform="translate(-53.615 -19.14)" fill="#fff"/><path d="M203.472,67.453a.507.507,0,0,0-.528-.529h-5.91a.525.525,0,0,0-.529.529v1.618a.542.542,0,0,0,.529.529h3.483v7.246a14.23,14.23,0,0,1-2.674.28c-3.639,0-6.408-1.96-6.408-7.714,0-6.1,3.08-7.775,6.936-7.775a24.517,24.517,0,0,1,4.23.5.452.452,0,0,0,.528-.435V59.988a.764.764,0,0,0-.528-.653,22.827,22.827,0,0,0-4.292-.435c-5.692,0-9.952,3.048-9.952,10.51,0,7.994,4.292,10.45,9.486,10.45a25.318,25.318,0,0,0,5.6-.684h.031Z" transform="translate(-61.816 -18.963)" fill="#fff"/><path d="M219.276,62.128h3.639c2.238,0,3.111,1.182,3.111,3.3,0,2.425-1.275,3.359-3.577,3.67l-3.173.435Zm-.528,17.542a.523.523,0,0,0,.528-.529V72.265l3.826-.56,3.048,7.5a.749.749,0,0,0,.715.467h2.146a.4.4,0,0,0,.373-.591L225.9,70.927c1.9-.9,3.2-2.55,3.2-5.567,0-3.266-1.244-5.91-6.158-5.91H216.82a.542.542,0,0,0-.529.529V79.138a.542.542,0,0,0,.529.529Z" transform="translate(-70.809 -19.14)" fill="#fff"/><path d="M252.22,79.667a.542.542,0,0,0,.528-.529V77.52a.542.542,0,0,0-.528-.529h-8.679V69.714h7.933a.523.523,0,0,0,.528-.528V67.568a.506.506,0,0,0-.528-.529h-7.933V62.128h8.18a.542.542,0,0,0,.529-.529V59.979a.546.546,0,0,0-.529-.529H241.086a.542.542,0,0,0-.529.529V79.138a.542.542,0,0,0,.529.529Z" transform="translate(-78.621 -19.14)" fill="#fff"/><path d="M266.705,62.13h3.111c1.959,0,3.11.591,3.11,2.675,0,1.991-1.213,2.861-3.608,3.11l-2.613.28Zm3.515,8.18a6.348,6.348,0,0,0,.746-.124c1.555.559,2.954,1.68,2.954,3.577,0,2.3-1.337,3.234-3.67,3.234H266.7V70.649Zm.186,9.362c4.074,0,6.594-1.618,6.594-5.848A5.159,5.159,0,0,0,273.7,69a5.233,5.233,0,0,0,2.3-4.417c0-3.577-1.9-5.132-6.189-5.132h-5.567a.542.542,0,0,0-.529.529V79.14a.542.542,0,0,0,.529.529Z" transform="translate(-86.079 -19.141)" fill="#fff"/><rect width="2.48" height="75.056" transform="translate(76.433)" fill="#fff"/><path d="M59.655,10.166a5.3,5.3,0,0,0,.475-2.238,5.3,5.3,0,0,0-.475-2.238A4.589,4.589,0,0,0,57.93,3.719,4.9,4.9,0,0,0,55.3,2.986a6.233,6.233,0,0,0-2.092.378A6.419,6.419,0,0,1,56.55,5.39a3.933,3.933,0,0,1,.719,2.536,3.933,3.933,0,0,1-.719,2.537,6.444,6.444,0,0,1-3.341,2.025,6.219,6.219,0,0,0,2.092.38,4.9,4.9,0,0,0,2.627-.73,4.578,4.578,0,0,0,1.726-1.972M32.434,36.86h1.017L34.1,33.7H30.776l.648,3.162ZM23.459,15.694V13.259H22v1.88a.242.242,0,0,1-.242.241H19.825a.242.242,0,0,1-.242-.241v-1.88H18.132v1.88a.243.243,0,0,1-.242.241H15.955a.241.241,0,0,1-.241-.241v-1.88H14.262v2.435Zm-1.074,1.418.794-.935h-8.64l.791.935Zm-6.055.483h-.881l-.109,2.069h.993Zm4.572,0H16.813v2.069H20.9Zm1.476,2.069-.111-2.071h-.881v2.071Zm-3.762,5.591H15.044l-.111,2.074h3.682Zm4.167,2.072-.109-2.072H19.1v2.072ZM39.274,9.745l.015-.014-.015-3.538H37.733V8.266a.241.241,0,0,1-.241.241H35.469a.242.242,0,0,1-.242-.241V6.193H33.687V8.266a.241.241,0,0,1-.241.241H31.424a.242.242,0,0,1-.242-.241V6.193H29.646V8.266a.242.242,0,0,1-.241.241l-2.023,0a.243.243,0,0,1-.241-.242V6.193H25.6l-.012,3.538.015.014Zm-1.716,1.682a.271.271,0,0,1,.035-.043l1.185-1.157H26.1l1.174,1.146a.23.23,0,0,1,.046.054Zm-8.3.483H27.325l-.218,2.7h2.149Zm5.874,0H29.74v2.7h5.391Zm2.632,2.7-.218-2.7H35.613v2.7Zm-5.572,6.844H26.554l-.218,2.7h5.858Zm6.34,2.7-.218-2.7H32.677v2.7Zm-9.277.483H26.3l-.218,2.7h3.178Zm5.874,0H29.74v2.7h5.391Zm3.661,2.7-.218-2.7H35.613v2.7ZM50.616,15.694V13.259H49.157v1.88a.242.242,0,0,1-.241.241H46.981a.241.241,0,0,1-.241-.241v-1.88H45.287v1.88a.241.241,0,0,1-.241.241H43.112a.241.241,0,0,1-.241-.241v-1.88H41.418v2.435Zm-1.073,1.418.794-.935H41.7l.79.935Zm-6.056.483h-.881l-.111,2.069h.991Zm4.571,0H43.969v2.069h4.089Zm1.475,2.069-.109-2.071h-.881v2.071Zm-3.762,5.591H42.2l-.109,2.072h3.68Zm4.167,2.072-.109-2.072H46.254v2.072Zm-29.853.485H17.621v1.747h2.465Zm10.645,0H28.267v1.747h2.464Zm5.875,0H34.141v1.747H36.6Zm10.645,0H44.786v1.747h2.463Zm6.962,3.558.223-.215.018-3.343H52.737V29.8a.243.243,0,0,1-.242.241H50.309a.243.243,0,0,1-.241-.23l-.105-2H47.732V29.8a.242.242,0,0,1-.241.241H44.545A.242.242,0,0,1,44.3,29.8V27.812H42.065l-.1,1.989a.241.241,0,0,1-.241.241H39.233a.242.242,0,0,1-.24-.223l-.163-2.007H37.086V29.8a.242.242,0,0,1-.242.241H33.9a.242.242,0,0,1-.241-.241V27.812H31.212V29.8a.242.242,0,0,1-.241.241H28.025a.241.241,0,0,1-.241-.241V27.812H26.04l-.161,2a.243.243,0,0,1-.242.232h-2.48a.242.242,0,0,1-.241-.23l-.106-2H20.566V29.8a.241.241,0,0,1-.241.241H17.38a.242.242,0,0,1-.241-.241V27.812H14.91L14.8,29.8a.242.242,0,0,1-.241.241H12.37a.243.243,0,0,1-.241-.241l-.007-1.989h-1.7l.018,3.343.224.215Zm-35.6,20.157H12.162l-.132,2.488h6.585Zm-2.988-2.971h-3.31l-.131,2.488h3.441Zm2.988-2.972H12.474l-.131,2.49h6.273Zm-2.988-2.972h-3L12.5,45.1h3.129Zm2.988-2.971H12.785l-.131,2.488h5.96ZM15.629,36.67H12.944l-.132,2.488h2.817ZM18.616,33.7h-5.56a.235.235,0,0,1,.035.136l-.125,2.352h5.648Zm27.638,2.489H51.9l-.123-2.354a.229.229,0,0,1,.035-.136h-5.56Zm2.988,2.97h2.817l-.131-2.488H49.242Zm-2.987,2.971h5.96l-.131-2.488H46.253ZM49.242,45.1h3.129l-.132-2.488h-3Zm-2.988,2.973h6.272L52.4,45.585H46.254Zm2.988,2.971h3.442l-.131-2.488H49.242Zm-2.987,2.971H52.84l-.132-2.488H46.254ZM24.618,33.7H19.1v2.489h5.519Zm15.635,2.489h5.519V33.7H40.253Zm4.554,5.942h.964V39.642h-.964Zm0,2.971h3.951V42.614H44.807Zm0,2.973h.964V45.586h-.964Zm0,2.971h3.951V48.557H44.807Zm0,2.971h.964v-2.49h-.964Zm-.087,3.414c1.044.271,2.034.57,2.979.881a53.935,53.935,0,0,1,8.915,3.973L52.9,54.5H44.807v2.747a.241.241,0,0,1-.087.186M20.062,54.5H11.973L8.256,62.289a53.91,53.91,0,0,1,8.914-3.976c.942-.314,1.935-.61,2.979-.881a.242.242,0,0,1-.087-.186Zm0-2.972H19.1v2.489h.964Zm0-2.971h-3.95v2.488h3.95Zm0-2.972H19.1v2.49h.964Zm0-2.972h-3.95V45.1h3.95Zm0-2.971H19.1v2.488h.963Zm14.625-6.427H52.3l1.408-1.362H11.16l1.408,1.362ZM48.54,24.774H49.8L49.694,22.7H48.541ZM43.486,22.7H42.333l-.108,2.071h1.26Zm3.5,0a1.006,1.006,0,0,1-1.957,0H43.969v2.071h4.089V22.7Zm-1.213-2.554h-3.3l-.109,2.071h2.672a1.01,1.01,0,0,1,.74-.728Zm.483,1.346a1.007,1.007,0,0,1,.727.725h2.687l-.109-2.071h-3.3Zm-10.641-.526h2.663l-.218-2.7H35.613Zm-6.357-2.7H26.811l-.218,2.7h2.664Zm4.132,0a1.006,1.006,0,0,1-1.921,0H29.74v2.7h5.391v-2.7Zm-1.2-3.179H27.069l-.218,2.7h4.59a1.006,1.006,0,0,1,.754-.795Zm.483,1.9a1.01,1.01,0,0,1,.74.793h4.6l-.218-2.7H32.677ZM30.545,34.979,30.282,33.7H25.1v2.489h2.653a8,8,0,0,1,2.792-1.208m6.568,1.208h2.658V33.7H34.588l-.263,1.282a8.025,8.025,0,0,1,2.787,1.208M43.268,37.8c.136-.039.276-.068.418-.1a.248.248,0,0,1,.15.009l.814.321a.241.241,0,0,1,.161.228v.9h3.951V36.671H43.27ZM39.76,39.158h1.153a6.069,6.069,0,0,1,1.875-1.2V36.67H37.749c.057.047.113.1.168.144a8.332,8.332,0,0,1,1.843,2.344m.376.831q.141-.177.3-.348h-.438c.051.116.1.232.142.348m-15.06.464a4.6,4.6,0,0,1,.9,2.257V56.3l.407-.051V41.976a2.776,2.776,0,0,1,.322-1.069,6.92,6.92,0,0,1,4.543-3.576h2.373a6.92,6.92,0,0,1,4.543,3.576,2.775,2.775,0,0,1,.321,1.069V56.249l.417.052V42.71a4.6,4.6,0,0,1,.894-2.251A7.655,7.655,0,0,0,37.6,37.176a7.547,7.547,0,0,0-3.37-1.723l-.387,1.89H31.029l-.386-1.892a7.545,7.545,0,0,0-3.375,1.724,7.65,7.65,0,0,0-2.191,3.278m-.2-.814h-.433c.1.112.2.227.291.343.044-.115.091-.229.142-.343M21.6,36.668H16.111v2.488h3.95v-.9a.241.241,0,0,1,.16-.228l.81-.321a.25.25,0,0,1,.151-.009c.142.027.281.06.418.1Zm2.357,2.488H25.1a8.332,8.332,0,0,1,1.843-2.344c.055-.049.111-.1.168-.144H22.086v1.293a6.074,6.074,0,0,1,1.874,1.2M21.383,24.772h1.263L22.537,22.7H21.385ZM16.328,22.7H15.176l-.108,2.071h1.261Zm3.5,0a1.006,1.006,0,0,1-1.957,0H16.813v2.071H20.9V22.7Zm-1.214-2.554h-3.3L15.2,22.217h2.673a1.01,1.01,0,0,1,.74-.728Zm.483,1.346a1.008,1.008,0,0,1,.727.725h2.688l-.11-2.071H19.1Zm10.88,19.04H28.244v1.679h1.734Zm2.216,0H30.46v1.679h1.733Zm2.217,0H32.676v1.679H34.41Zm.483,1.678H36.63V40.531H34.893Zm-.483-3.763a.241.241,0,0,1,.483,0v1.6h1.975a.241.241,0,0,1,.241.241v1.92h.722a.242.242,0,0,1,0,.483h-.722V44.33a.241.241,0,0,1-.483,0V42.694H34.893v1.763a.241.241,0,1,1-.483,0V42.694H32.677v1.7a.242.242,0,0,1-.483,0v-1.7H30.46v1.763a.241.241,0,1,1-.483,0V42.694H28.243V44.33a.241.241,0,0,1-.482,0V42.694h-.722a.242.242,0,0,1,0-.483h.722V40.29A.241.241,0,0,1,28,40.049h1.975v-1.6a.241.241,0,0,1,.483,0v1.6h1.733V37.986a.242.242,0,1,1,.483,0v2.063H34.41Zm-13.529-.156-.339.136v18.6l.339.037Zm4.611,8.137V45.362H23.92a.241.241,0,0,1-.194-.1l-.519-.6-.231.121.11.26a.24.24,0,0,1-.068.28l-.691.571.69.569a.241.241,0,0,1,.068.281l-.11.259.231.121.53-.616a.238.238,0,0,1,.183-.084Zm0,6.118V51.483H23.92a.241.241,0,0,1-.194-.1l-.519-.6-.231.122.11.259a.241.241,0,0,1-.079.289l-.678.561.691.57a.238.238,0,0,1,.068.279l-.11.26.231.121.53-.615a.237.237,0,0,1,.183-.085Zm0,3.786V53.024H24.029l-.578.672a.242.242,0,0,1-.3.061l-.589-.311a.241.241,0,0,1-.116-.311l.127-.3L21.8,52.2a.241.241,0,0,1,0-.373l.776-.641-.127-.3a.241.241,0,0,1,.11-.307l.6-.314a.241.241,0,0,1,.3.056l.582.678H25.49V46.908H24.029l-.578.672a.242.242,0,0,1-.3.062l-.589-.311a.241.241,0,0,1-.116-.311l.127-.3-.763-.631a.245.245,0,0,1-.045-.043.241.241,0,0,1,.032-.339l.777-.641-.127-.3a.241.241,0,0,1,.11-.307l.6-.314a.241.241,0,0,1,.3.056l.582.678H25.49v-2.17A5.16,5.16,0,0,0,23.925,39.8a5.511,5.511,0,0,0-2.561-1.56V57.049Zm18.5.738.339-.037V38.425l-.339-.136ZM39.38,51.485v1.061h1.57a.241.241,0,0,1,.183.085l.529.615.231-.121-.111-.259a.241.241,0,0,1,.068-.28l.69-.57-.678-.561a.242.242,0,0,1-.08-.289l.111-.259-.231-.122-.518.6a.241.241,0,0,1-.194.1Zm0-6.117v1.06h1.57a.242.242,0,0,1,.183.085l.529.616.231-.121-.111-.259a.243.243,0,0,1,.068-.281l.69-.569-.692-.571a.243.243,0,0,1-.068-.28l.111-.26-.231-.121-.518.6a.242.242,0,0,1-.194.1Zm0-2.655v2.17h1.461l.581-.678a.241.241,0,0,1,.3-.056l.6.314a.24.24,0,0,1,.109.307l-.125.3.777.641a.242.242,0,0,1,.032.339.21.21,0,0,1-.047.042l-.762.631.125.3a.241.241,0,0,1-.116.311l-.589.311a.241.241,0,0,1-.3-.062l-.578-.672h-1.46V51h1.46l.581-.678a.241.241,0,0,1,.3-.056l.6.314a.241.241,0,0,1,.109.307l-.125.3.776.641a.239.239,0,0,1,0,.373l-.774.639.125.3a.241.241,0,0,1-.116.311l-.589.311a.241.241,0,0,1-.3-.061l-.58-.67h-1.46v3.3l4.125.72V38.235a5.515,5.515,0,0,0-2.561,1.56,5.158,5.158,0,0,0-1.564,2.916M10.254,5.987,9.075,3,7.9,5.98a.241.241,0,0,1-.264.16L4.449,5.665,6.455,8.174a.24.24,0,0,1,0,.3L4.446,10.984l3.187-.475a.242.242,0,0,1,.26.152l1.179,2.99,1.176-2.983a.242.242,0,0,1,.263-.161l3.187.475L11.693,8.473a.239.239,0,0,1,0-.3L13.7,5.658l-3.187.475a.241.241,0,0,1-.26-.151M8.551,62.7a48.482,48.482,0,0,1,47.768,0,26.608,26.608,0,0,0,3.438-5.645,25.327,25.327,0,0,0,2.225-10.4V1.156H2.889v45.5a25.327,25.327,0,0,0,2.225,10.4A26.654,26.654,0,0,0,8.551,62.7m47.234.656a47.143,47.143,0,0,0-23.354-6.118A46.837,46.837,0,0,0,9.086,63.357,28.3,28.3,0,0,0,11.518,65.9a29.882,29.882,0,0,0,9.594,5.928,31.99,31.99,0,0,0,22.647,0A29.869,29.869,0,0,0,53.351,65.9a28.318,28.318,0,0,0,2.434-2.544m-23.35,11.7a31.907,31.907,0,0,1-21.7-8.306,27.286,27.286,0,0,1-9-20.09V0H63.138V46.66a27.285,27.285,0,0,1-9.005,20.09,31.906,31.906,0,0,1-21.7,8.306" transform="translate(-1.732)" fill="#fff" fill-rule="evenodd"/></g><g transform="translate(-23329.875 -4598)"><path d="M.535,273.141a.487.487,0,0,1-.409-.82l2.8-3.716H.606a.483.483,0,1,1,0-.964H3.772c.6,0,.771.567.346,1.02l-2.68,3.48H3.989a.5.5,0,1,1-.063,1Z" transform="translate(0.008 -198.249)" fill="#fff"/><path d="M8.781,273.159a.555.555,0,0,1-.251-.754L10.784,268a.532.532,0,0,1,.974,0l2.216,4.407c.322.613-.629,1.1-.911.487l-.346-.691h-2.9l-.34.691a.589.589,0,0,1-.7.268m3.379-2-.885-1.942-.964,1.941Z" transform="translate(-3.664 -198.266)" fill="#fff"/><path d="M23.994,272.476a2.975,2.975,0,0,1-1.933.66,2.59,2.59,0,0,1-2.82-2.812,2.8,2.8,0,0,1,2.891-2.82,2.569,2.569,0,0,1,1.791.691.51.51,0,0,1-.684.754,1.659,1.659,0,0,0-1.108-.5,1.87,1.87,0,0,0-1.87,1.87,1.739,1.739,0,0,0,1.8,1.87,2,2,0,0,0,1.178-.354v-.966H22.061a.479.479,0,1,1,0-.958h1.572a.538.538,0,0,1,.558.463v1.674a.632.632,0,0,1-.2.424" transform="translate(-8.331 -198.19)" fill="#fff"/><path d="M31.032,272.68a.523.523,0,0,1-1.045.015v-4.462a.47.47,0,0,1,.472-.479h2.09a1.746,1.746,0,0,1,.737,3.339l1.045,1.272a.531.531,0,1,1-.88.589l-1.186-1.7H31.032Zm0-2.324h1.516a.826.826,0,0,0,0-1.65H31.032Z" transform="translate(-12.986 -198.299)" fill="#fff"/><path d="M39.835,273.191a.479.479,0,0,1-.487-.487v-4.463a.475.475,0,0,1,.487-.487h2.82a.51.51,0,1,1,0,1.02H40.392v1.178h1.98a.515.515,0,1,1,0,1.03h-1.98v1.178h2.4a.516.516,0,1,1,0,1.029Z" transform="translate(-17.042 -198.299)" fill="#fff"/><path d="M48.355,273.188a.469.469,0,0,1-.48-.487v-4.462a.464.464,0,0,1,.48-.487h2.21a1.474,1.474,0,0,1,1.587,1.5,1.247,1.247,0,0,1-.432.99,1.317,1.317,0,0,1,.9,1.3,1.615,1.615,0,0,1-1.791,1.644Zm2.21-4.478H48.9v1.171h1.658c.34,0,.55-.212.55-.629a.549.549,0,0,0-.55-.542M48.9,272.23h1.917a.7.7,0,1,0,0-1.391H48.9Z" transform="translate(-20.736 -198.296)" fill="#fff"/><path d="M57.44,273.159a.554.554,0,0,1-.252-.754L59.443,268a.532.532,0,0,1,.974,0l2.216,4.407c.322.613-.629,1.1-.911.487l-.346-.691h-2.9l-.34.691a.589.589,0,0,1-.7.268m3.378-2-.885-1.942-.966,1.941Z" transform="translate(-24.743 -198.266)" fill="#fff"/><path d="M67.756,270.324a2.644,2.644,0,0,1,2.757-2.82,2.57,2.57,0,0,1,1.8.7.51.51,0,1,1-.7.737,1.36,1.36,0,0,0-1.1-.432,1.7,1.7,0,0,0-1.791,1.814,1.728,1.728,0,0,0,1.791,1.87,1.826,1.826,0,0,0,1.225-.5.529.529,0,0,1,.723.095.541.541,0,0,1-.087.737,2.851,2.851,0,0,1-4.619-2.2" transform="translate(-29.346 -198.189)" fill="#fff"/><path d="M70.482,264.322c-.393-.33.118-.912.479-.623l.55.408.55-.408c.361-.291.888.29.495.623l-.817.612a.34.34,0,0,1-.456,0Z" transform="translate(-30.467 -196.507)" fill="#fff"/><path d="M79.956,270.752l-.749.825v1.1a.519.519,0,0,1-1.037,0V268.19a.519.519,0,0,1,1.037,0v2l2.271-2.34a.491.491,0,0,1,.746,0,.453.453,0,0,1,0,.7c-.464.55-1.006,1.037-1.509,1.587l1.839,2.223c.471.652-.534,1.123-.85.623Z" transform="translate(-33.86 -198.263)" fill="#fff"/><path d="M87.521,268.212a.519.519,0,0,1,1.037,0V272.7a.519.519,0,0,1-1.037,0Z" transform="translate(-37.911 -198.285)" fill="#fff"/><path d="M95.55,268.212a.519.519,0,0,1,1.037,0V272.7a.519.519,0,0,1-1.037,0Z" transform="translate(-41.39 -198.285)" fill="#fff"/><path d="M99.446,268.25c0-.283.063-.558.471-.558.283,0,.346.071.559.275l2.6,3.253v-3.049a.553.553,0,0,1,.5-.542.6.6,0,0,1,.557.542v4.424a.524.524,0,0,1-.416.542.79.79,0,0,1-.637-.275l-2.6-3.3v3.033a.489.489,0,0,1-.5.542.518.518,0,0,1-.534-.542Z" transform="translate(-43.077 -198.245)" fill="#fff"/><path d="M112.252,273.116a2.743,2.743,0,0,1-2.962-2.828,2.888,2.888,0,1,1,5.775,0,2.74,2.74,0,0,1-2.813,2.828m-.086-4.69a1.862,1.862,0,1,0,1.87,1.862,1.8,1.8,0,0,0-1.87-1.862" transform="translate(-47.341 -198.145)" fill="#fff"/><path d="M122.68,272.8l-2.075-4.345a.54.54,0,1,1,.967-.479l.7,1.58.9,2.074.887-2.074.7-1.579a.525.525,0,1,1,.958.432l-2,4.392c-.18.5-.737.613-1.036,0" transform="translate(-52.219 -198.261)" fill="#fff"/><path d="M129.66,273.158a.554.554,0,0,1-.252-.754L131.663,268a.532.532,0,0,1,.975,0l2.216,4.407c.321.613-.629,1.1-.913.487l-.345-.691h-2.9l-.34.691a.589.589,0,0,1-.7.268m3.379-2-.888-1.941-.966,1.941Z" transform="translate(-56.03 -198.266)" fill="#fff"/><path d="M139.975,270.324a2.643,2.643,0,0,1,2.758-2.82,2.566,2.566,0,0,1,1.8.7.51.51,0,1,1-.7.737,1.356,1.356,0,0,0-1.1-.432,1.7,1.7,0,0,0-1.792,1.814,1.728,1.728,0,0,0,1.792,1.87,1.826,1.826,0,0,0,1.225-.5.529.529,0,0,1,.723.095.542.542,0,0,1-.087.737,2.851,2.851,0,0,1-4.619-2.2" transform="translate(-60.633 -198.189)" fill="#fff"/><path d="M150.185,268.208a.519.519,0,0,1,1.037,0v4.486a.519.519,0,0,1-1.037,0Z" transform="translate(-65.058 -198.281)" fill="#fff"/><path d="M156.356,268.208a.519.519,0,0,1,1.036,0v3.1a1.746,1.746,0,0,1-1.949,1.979,1.971,1.971,0,0,1-1.712-.809c-.4-.479.353-1.17.762-.668a1.168,1.168,0,0,0,1.03.487c.44-.016.825-.212.833-.99Z" transform="translate(-66.544 -198.281)" fill="#fff"/><path d="M162.069,268.742c.181-1.524,2.483-1.8,3.567-.966a.46.46,0,1,1-.5.77c-.581-.37-1.9-.542-2.066.275-.213,1.288,3.205.549,3.15,2.64-.057,2-2.947,2.04-4.03,1.147a.583.583,0,0,1-.11-.77.464.464,0,0,1,.7-.057c.644.44,2.3.77,2.42-.346-.1-1.162-3.37-.464-3.127-2.695" transform="translate(-70.167 -198.108)" fill="#fff"/><path d="M172.837,270.752l-.746.825v1.1a.519.519,0,0,1-1.037,0V268.19a.519.519,0,0,1,1.037,0v2l2.27-2.34a.491.491,0,0,1,.747,0,.453.453,0,0,1,0,.7c-.464.55-1.006,1.037-1.509,1.587l1.839,2.223c.471.652-.534,1.123-.85.623Z" transform="translate(-74.098 -198.263)" fill="#fff"/><path d="M180.4,268.212a.519.519,0,0,1,1.037,0V272.7a.519.519,0,0,1-1.037,0Z" transform="translate(-78.147 -198.285)" fill="#fff"/><path d="M187.981,270.324a2.644,2.644,0,0,1,2.758-2.82,2.566,2.566,0,0,1,1.8.7.51.51,0,1,1-.7.737,1.36,1.36,0,0,0-1.1-.432,1.7,1.7,0,0,0-1.792,1.814,1.729,1.729,0,0,0,1.792,1.87,1.828,1.828,0,0,0,1.225-.5.529.529,0,0,1,.723.095.541.541,0,0,1-.087.737,2.851,2.851,0,0,1-4.619-2.2" transform="translate(-81.429 -198.189)" fill="#fff"/><path d="M198.568,273.191a.479.479,0,0,1-.487-.487v-4.463a.475.475,0,0,1,.487-.487h2.82a.51.51,0,1,1,0,1.02h-2.263v1.178h1.98a.515.515,0,1,1,0,1.03h-1.98v1.178h2.4a.516.516,0,1,1,0,1.029Z" transform="translate(-85.807 -198.299)" fill="#fff"/><path d="M206.636,268.25c0-.283.063-.558.471-.558.283,0,.346.071.559.275l2.6,3.253v-3.049a.553.553,0,0,1,.5-.542.6.6,0,0,1,.557.542v4.424a.524.524,0,0,1-.416.542.79.79,0,0,1-.637-.275l-2.6-3.3v3.033a.489.489,0,0,1-.5.542.517.517,0,0,1-.534-.542Z" transform="translate(-89.513 -198.245)" fill="#fff"/><path d="M218,268.718h-1.376a.5.5,0,1,1,0-1.005h3.716a.5.5,0,1,1,0,1.005h-1.3v3.967a.519.519,0,1,1-1.037,0Z" transform="translate(-93.623 -198.281)" fill="#fff"/><path d="M224.188,273.159a.555.555,0,0,1-.251-.754L226.192,268a.532.532,0,0,1,.974,0l2.216,4.407c.322.613-.629,1.1-.912.487l-.346-.691h-2.9l-.34.691a.59.59,0,0,1-.7.268m3.379-2-.888-1.941-.966,1.941Z" transform="translate(-96.981 -198.266)" fill="#fff"/><path d="M235.9,272.68a.523.523,0,1,1-1.045.015v-4.462a.47.47,0,0,1,.472-.479h2.09a1.746,1.746,0,0,1,.737,3.339l1.045,1.272a.53.53,0,1,1-.88.589l-1.187-1.7H235.9Zm0-2.324h1.517a.826.826,0,0,0,0-1.65H235.9Z" transform="translate(-101.739 -198.299)" fill="#fff"/><path d="M80.881,212.509c0-8.936,5.6-16.622,16.251-16.622a15.146,15.146,0,0,1,10.6,4.121,3,3,0,1,1-4.121,4.352,8.009,8.009,0,0,0-6.482-2.547c-7.131,0-10.556,5.044-10.556,10.7,0,5.741,3.38,11.019,10.556,11.019a10.784,10.784,0,0,0,7.223-2.963,3.117,3.117,0,0,1,4.259.555,3.193,3.193,0,0,1-.51,4.352c-3.241,3.009-7.13,3.611-10.972,3.611-11.2,0-16.251-7.639-16.251-16.575" transform="translate(-35.034 -167.165)" fill="#fff"/><path d="M146.08,229.4a2.827,2.827,0,0,1-2.871-2.87v-26.3a2.8,2.8,0,0,1,2.871-2.871H162.7a3.013,3.013,0,1,1,0,6.019H149.367v6.945h11.667a3.033,3.033,0,1,1,0,6.065H149.367v6.945h14.122a3.042,3.042,0,1,1,0,6.065Z" transform="translate(-62.036 -167.801)" fill="#fff"/><path d="M202.547,226.387c0,4.028-6.158,4.167-6.158.093v-26.3a2.768,2.768,0,0,1,2.777-2.824h12.316c11.76,0,14.17,15.742,4.352,19.677l6.158,7.5c2.407,3.565-2.408,6.991-5.186,3.473l-6.991-10h-7.269Zm0-13.7h8.937c6.019,0,6.389-9.723,0-9.723h-8.937Z" transform="translate(-85.074 -167.802)" fill="#fff"/><path d="M3.173,229.113C.256,229.113-.9,226.29.765,224.3l16.483-21.9H3.591c-4.028,0-3.7-5.695,0-5.695H22.25c3.519,0,4.537,3.333,2.037,6.019L8.5,223.234H23.546a2.949,2.949,0,1,1-.37,5.88Z" transform="translate(0.006 -167.519)" fill="#fff"/><path d="M67.369,244.719a3.652,3.652,0,1,1-3.652-3.652,3.652,3.652,0,0,1,3.652,3.652" transform="translate(-26.016 -186.738)" fill="#fff"/><path d="M62.561,221.03a3.652,3.652,0,1,1-3.652-3.652,3.652,3.652,0,0,1,3.652,3.652" transform="translate(-23.933 -176.475)" fill="#fff"/><path d="M65.475,197.341a3.652,3.652,0,1,1-3.652-3.652,3.652,3.652,0,0,1,3.652,3.652" transform="translate(-25.196 -166.213)" fill="#fff"/><path d="M74.879,174.292a3.652,3.652,0,1,1-3.652-3.652,3.652,3.652,0,0,1,3.652,3.652" transform="translate(-29.269 -156.228)" fill="#fff"/><path d="M86.03,166.727a3.416,3.416,0,0,1-3.416-3.416V152.043H71.346a3.416,3.416,0,1,1,0-6.831H86.03a3.416,3.416,0,0,1,3.416,3.415v14.684a3.416,3.416,0,0,1-3.416,3.416" transform="translate(-29.424 -145.212)" fill="#fff"/></g></g></svg>